<svg width="43" height="42" viewBox="0 0 43 42" fill="none" xmlns="http://www.w3.org/2000/svg">
<path d="M41.1298 15.2556L28.539 13.3851L22.9106 1.72071C22.7569 1.40134 22.504 1.14281 22.1916 0.985664C21.4081 0.590262 20.4559 0.919763 20.0642 1.72071L14.4358 13.3851L1.84499 15.2556C1.49786 15.3063 1.18049 15.4736 0.9375 15.7271C0.64374 16.0357 0.481865 16.451 0.487444 16.8815C0.493023 17.3121 0.6656 17.7229 0.967254 18.0234L10.0769 27.1025L7.92467 39.9226C7.8742 40.2209 7.90648 40.5276 8.01786 40.808C8.12923 41.0884 8.31524 41.3313 8.55479 41.5092C8.79435 41.687 9.07786 41.7927 9.37318 41.8143C9.66849 41.8358 9.96381 41.7723 10.2256 41.631L21.4874 35.5783L32.7492 41.631C33.0566 41.7983 33.4137 41.854 33.7559 41.7932C34.6187 41.6411 35.1989 40.8047 35.0501 39.9226L32.898 27.1025L42.0076 18.0234C42.2555 17.775 42.4192 17.4506 42.4687 17.0958C42.6026 16.2086 41.9976 15.3874 41.1298 15.2556Z" fill="#CEDBEC"/>
</svg>
